# Blender 3.3.1
# www.blender.org
o Cube.001
v 1.000000 7.539629 -1.000000
v 0.513274 1.406002 -0.513274
v 1.000000 7.539629 1.000000
v 0.513274 1.406002 0.513274
v -1.000000 7.539629 -1.000000
v -0.513274 1.406002 -0.513274
v -1.000000 7.539629 1.000000
v -0.513274 1.406002 0.513274
v 0.629782 0.629781 -0.629782
v 0.629782 -0.629782 -0.629782
v 0.629782 0.629781 0.629782
v 0.629782 -0.629782 0.629782
v -0.629782 0.629781 -0.629782
v -0.629782 -0.629782 -0.629782
v -0.629782 0.629781 0.629782
v -0.629782 -0.629782 0.629782
vn 0.6975 0.1640 -0.6975
vn -0.6975 0.1640 -0.6975
vn -0.6975 0.1640 0.6975
vn 0.6975 0.1640 0.6975
vn 0.6737 -0.3039 0.6737
vn -0.6737 -0.3039 0.6737
vn -0.6737 -0.3039 -0.6737
vn 0.6737 -0.3039 -0.6737
vn 0.6890 0.2247 -0.6890
vn -0.6890 0.2247 -0.6890
vn -0.6890 0.2247 0.6890
vn 0.6890 0.2247 0.6890
vn 0.6890 -0.2247 0.6890
vn -0.6890 -0.2247 0.6890
vn -0.6890 -0.2247 -0.6890
vn 0.6890 -0.2247 -0.6890
vt 0.625000 0.500000
vt 0.375000 0.500000
vt 0.625000 0.750000
vt 0.375000 0.750000
vt 0.875000 0.500000
vt 0.625000 0.250000
vt 0.125000 0.500000
vt 0.375000 0.250000
vt 0.875000 0.750000
vt 0.625000 1.000000
vt 0.625000 0.000000
vt 0.375000 1.000000
vt 0.375000 0.000000
vt 0.125000 0.750000
vt 0.625000 0.500000
vt 0.375000 0.500000
vt 0.625000 0.750000
vt 0.375000 0.750000
vt 0.875000 0.500000
vt 0.625000 0.250000
vt 0.125000 0.500000
vt 0.375000 0.250000
vt 0.875000 0.750000
vt 0.625000 1.000000
vt 0.625000 0.000000
vt 0.375000 1.000000
vt 0.375000 0.000000
vt 0.125000 0.750000
s 1
f 1/1/1 5/5/2 7/9/3 3/3/4
f 4/4/5 3/3/4 7/10/3 8/12/6
f 8/13/6 7/11/3 5/6/2 6/8/7
f 6/7/7 2/2/8 4/4/5 8/14/6
f 2/2/8 1/1/1 3/3/4 4/4/5
f 6/8/7 5/6/2 1/1/1 2/2/8
f 9/15/9 13/19/10 15/23/11 11/17/12
f 12/18/13 11/17/12 15/24/11 16/26/14
f 16/27/14 15/25/11 13/20/10 14/22/15
f 14/21/15 10/16/16 12/18/13 16/28/14
f 10/16/16 9/15/9 11/17/12 12/18/13
f 14/22/15 13/20/10 9/15/9 10/16/16
