# Blender 3.3.1
# www.blender.org
o Cube
v -0.027279 -0.001108 0.250000
v -0.062500 0.045074 0.214779
v -0.027279 0.963671 0.250000
v -0.027279 1.003755 0.214779
v -0.062500 0.968534 0.214779
v -0.062500 0.045074 -0.214779
v -0.027279 0.045074 -0.250000
v -0.027279 1.003755 -0.214779
v -0.027279 0.968534 -0.250000
v -0.062500 0.968534 -0.214779
v 0.062500 -0.001108 0.214779
v 0.027279 -0.001108 0.250000
v 0.027279 0.998892 0.214779
v 0.027279 0.963671 0.250000
v 0.062500 0.963671 0.214779
v 0.027279 -0.001108 -0.250000
v 0.062500 -0.001108 -0.214779
v 0.027279 0.998892 -0.214779
v 0.062500 0.963671 -0.214779
v 0.027279 0.963671 -0.250000
vn 0.3827 -0.0000 0.9239
vn 0.3487 0.3317 0.8766
vn -0.3306 0.3190 0.8882
vn -0.2610 -0.0000 0.9653
vn 0.9239 -0.0000 -0.3827
vn 0.8756 0.3416 -0.3416
vn 0.8756 0.3416 0.3416
vn 0.9239 -0.0000 0.3827
vn 0.3798 0.8600 -0.3409
vn -0.3033 0.8895 -0.3417
vn -0.3069 0.8817 0.3585
vn 0.3722 0.8591 0.3512
vn -0.3119 -0.0000 -0.9501
vn -0.3250 0.3542 -0.8768
vn 0.3566 0.3287 -0.8745
vn 0.4894 -0.0000 -0.8720
vn -0.8701 0.3468 0.3502
vn -0.8756 0.3416 -0.3416
vn -0.8906 -0.0000 0.4548
vn -0.9239 -0.0000 -0.3827
vt 0.572401 0.053706
vt 0.581041 0.053473
vt 0.576172 0.053473
vt 0.928878 0.838413
vt 0.581041 0.186858
vt 0.572401 0.148024
vt 0.572401 0.099168
vt 0.578607 0.090471
vt 0.572401 0.154910
vt 0.567531 0.151467
vt 0.576172 0.186858
vt 0.573737 0.090471
vt 0.928878 0.966650
vt 0.581041 0.024195
vt 0.871781 0.838413
vt 0.579944 0.018909
vt 0.576172 0.024195
vt 0.572401 0.141162
vt 0.581041 0.162449
vt 0.578607 0.149860
vt 0.579944 0.157164
vt 0.576172 0.157580
vt 0.579944 0.152294
vt 0.573737 0.149860
vt 0.581041 0.157580
vt 0.871781 0.966650
vt 0.871781 0.838413
vt 0.576172 0.053473
vt 0.579944 0.053706
vt 0.571303 0.053473
vt 0.579944 0.099168
vt 0.578607 0.149860
vt 0.579944 0.154910
vt 0.571303 0.186858
vt 0.579944 0.148024
vt 0.871781 0.966650
vt 0.584813 0.151467
vt 0.573737 0.149860
vt 0.576172 0.186858
vt 0.572401 0.018909
vt 0.576172 0.024195
vt 0.928878 0.838413
vt 0.571303 0.024195
vt 0.579944 0.141162
vt 0.571303 0.162449
vt 0.572401 0.157164
vt 0.578607 0.090471
vt 0.928878 0.966650
vt 0.571303 0.157580
vt 0.573737 0.090471
vt 0.572401 0.152294
vt 0.576172 0.157580
s 1
f 12/29/1 14/35/2 3/6/3 1/1/4
f 17/42/5 19/48/6 15/36/7 11/27/8
f 18/44/9 8/18/10 4/7/11 13/31/12
f 7/16/13 9/23/14 20/51/15 16/40/16
f 3/6/3 4/9/11 5/10/17
f 8/19/10 9/22/14 10/25/18
f 13/33/12 14/35/2 15/37/7
f 18/45/9 19/49/6 20/52/15
f 1/2/4 3/5/3 5/11/17 2/3/19
f 4/8/11 8/20/10 10/24/18 5/12/17
f 9/22/14 7/17/13 6/14/20 10/25/18
f 8/21/10 18/46/9 20/51/15 9/23/14
f 19/49/6 17/43/5 16/41/16 20/52/15
f 18/47/9 13/32/12 15/38/7 19/50/6
f 14/34/2 12/30/1 11/28/8 15/39/7
f 13/33/12 4/9/11 3/6/3 14/35/2
f 2/4/19 5/13/17 10/26/18 6/15/20
