# Blender 3.3.1
# www.blender.org
mtllib crate.mtl
o Cube
v 1.000000 2.000000 -1.000000
v 1.000000 -0.000000 -1.000000
v 1.000000 2.000000 1.000000
v 1.000000 -0.000000 1.000000
v -1.000000 2.000000 -1.000000
v -1.000000 -0.000000 -1.000000
v -1.000000 2.000000 1.000000
v -1.000000 -0.000000 1.000000
v 1.000000 2.000000 -1.000000
v -1.000000 2.000000 -1.000000
v -1.000000 2.000000 1.000000
v 1.000000 2.000000 1.000000
v 1.000000 2.000000 -1.000000
v 1.000000 -0.000000 -1.000000
v 1.000000 2.000000 1.000000
v 1.000000 -0.000000 1.000000
v -1.000000 2.000000 -1.000000
v -1.000000 -0.000000 -1.000000
v -1.000000 2.000000 1.000000
v -1.000000 -0.000000 1.000000
v 1.000000 2.000000 -1.000000
v -1.000000 2.000000 -1.000000
v -1.000000 2.000000 1.000000
v 1.000000 2.000000 1.000000
v 1.000000 2.000000 -1.000000
v 1.000000 -0.000000 -1.000000
v 1.000000 2.000000 1.000000
v 1.000000 -0.000000 1.000000
v -1.000000 2.000000 -1.000000
v -1.000000 -0.000000 -1.000000
v -1.000000 2.000000 1.000000
v -1.000000 -0.000000 1.000000
v 1.000000 2.000000 -1.000000
v -1.000000 2.000000 -1.000000
v -1.000000 2.000000 1.000000
v 1.000000 2.000000 1.000000
v 1.000000 2.000000 -1.000000
v 1.000000 -0.000000 -1.000000
v 1.000000 2.000000 1.000000
v 1.000000 -0.000000 1.000000
v -1.000000 2.000000 -1.000000
v -1.000000 -0.000000 -1.000000
v -1.000000 2.000000 1.000000
v -1.000000 -0.000000 1.000000
v 1.000000 2.000000 -1.000000
v -1.000000 2.000000 -1.000000
v -1.000000 2.000000 1.000000
v 1.000000 2.000000 1.000000
vn -0.0000 -0.0000 1.0000
vn -1.0000 -0.0000 -0.0000
vn -0.0000 -1.0000 -0.0000
vn 1.0000 -0.0000 -0.0000
vn -0.0000 -0.0000 -1.0000
vn -0.0000 1.0000 -0.0000
vt 0.798906 0.799002
vt 0.798906 0.799002
vt 0.798889 0.601238
vt 0.798906 0.799002
vt 0.601306 0.798718
vt 0.798889 0.601238
vt 0.798889 0.601238
vt 0.601076 0.600939
vt 0.798906 0.799002
vt 0.601306 0.798718
vt 0.798889 0.601238
vt 0.601306 0.798718
vt 0.601076 0.600939
vt 0.601306 0.798718
vt 0.601076 0.600939
vt 0.601076 0.600939
vt 0.798906 0.799002
vt 0.601306 0.798718
vt 0.601076 0.600939
vt 0.798889 0.601238
vt 0.798906 0.799002
vt 0.798906 0.799002
vt 0.798889 0.601238
vt 0.798906 0.799002
vt 0.601306 0.798718
vt 0.798889 0.601238
vt 0.798889 0.601238
vt 0.601076 0.600939
vt 0.798906 0.799002
vt 0.601306 0.798718
vt 0.798889 0.601238
vt 0.601306 0.798718
vt 0.601076 0.600939
vt 0.601306 0.798718
vt 0.601076 0.600939
vt 0.601076 0.600939
vt 0.798906 0.799002
vt 0.601306 0.798718
vt 0.601076 0.600939
vt 0.798889 0.601238
vt 0.798906 0.799002
vt 0.798906 0.799002
vt 0.798889 0.601238
vt 0.798906 0.799002
vt 0.601306 0.798718
vt 0.798889 0.601238
vt 0.798889 0.601238
vt 0.601076 0.600939
vt 0.798906 0.799002
vt 0.601306 0.798718
vt 0.798889 0.601238
vt 0.601306 0.798718
vt 0.601076 0.600939
vt 0.601306 0.798718
vt 0.601076 0.600939
vt 0.601076 0.600939
vt 0.798906 0.799002
vt 0.601306 0.798718
vt 0.601076 0.600939
vt 0.798889 0.601238
vt 0.798906 0.799002
vt 0.798906 0.799002
vt 0.798889 0.601238
vt 0.798906 0.799002
vt 0.601306 0.798718
vt 0.798889 0.601238
vt 0.798889 0.601238
vt 0.601076 0.600939
vt 0.798906 0.799002
vt 0.601306 0.798718
vt 0.798889 0.601238
vt 0.601306 0.798718
vt 0.601076 0.600939
vt 0.601306 0.798718
vt 0.601076 0.600939
vt 0.601076 0.600939
vt 0.798906 0.799002
vt 0.601306 0.798718
vt 0.601076 0.600939
vt 0.798889 0.601238
s 0
usemtl Material
f 4/7/1 3/4/1 7/14/1 8/16/1
f 8/16/2 7/14/2 5/9/2 6/11/2
f 6/12/3 2/2/3 4/7/3 8/16/3
f 2/3/4 1/1/4 3/5/4 4/8/4
f 6/13/5 5/10/5 1/1/5 2/3/5
f 9/17/6 10/18/6 11/19/6 12/20/6
f 5/10/6 10/18/6 9/17/6 1/1/6
f 7/15/6 11/19/6 10/18/6 5/10/6
f 3/6/6 12/20/6 11/19/6 7/15/6
f 1/1/6 9/17/6 12/20/6 3/6/6
f 16/27/5 20/36/5 19/34/5 15/24/5
f 20/36/4 18/31/4 17/29/4 19/34/4
f 18/32/6 20/36/6 16/27/6 14/22/6
f 14/23/2 16/28/2 15/25/2 13/21/2
f 18/33/1 14/23/1 13/21/1 17/30/1
f 21/37/3 24/40/3 23/39/3 22/38/3
f 17/30/6 13/21/6 21/37/6 22/38/6
f 19/35/6 17/30/6 22/38/6 23/39/6
f 15/26/6 19/35/6 23/39/6 24/40/6
f 13/21/6 15/26/6 24/40/6 21/37/6
f 28/47/5 32/56/5 31/54/5 27/44/5
f 32/56/4 30/51/4 29/49/4 31/54/4
f 30/52/6 32/56/6 28/47/6 26/42/6
f 26/43/2 28/48/2 27/45/2 25/41/2
f 30/53/1 26/43/1 25/41/1 29/50/1
f 33/57/3 36/60/3 35/59/3 34/58/3
f 29/50/6 25/41/6 33/57/6 34/58/6
f 31/55/6 29/50/6 34/58/6 35/59/6
f 27/46/6 31/55/6 35/59/6 36/60/6
f 25/41/6 27/46/6 36/60/6 33/57/6
f 40/67/1 39/64/1 43/74/1 44/76/1
f 44/76/2 43/74/2 41/69/2 42/71/2
f 42/72/3 38/62/3 40/67/3 44/76/3
f 38/63/4 37/61/4 39/65/4 40/68/4
f 42/73/5 41/70/5 37/61/5 38/63/5
f 45/77/6 46/78/6 47/79/6 48/80/6
f 41/70/6 46/78/6 45/77/6 37/61/6
f 43/75/6 47/79/6 46/78/6 41/70/6
f 39/66/6 48/80/6 47/79/6 43/75/6
f 37/61/6 45/77/6 48/80/6 39/66/6
