# Blender 3.3.1
# www.blender.org
o Cube
v -1.000000 0.000000 1.000000
v -1.000000 2.000000 1.000000
v -1.000000 0.000000 -1.000000
v -1.000000 2.000000 -1.000000
v 0.369379 1.928189 -1.000000
v -0.374838 0.071811 -1.000000
v -0.374838 0.071811 1.000000
v 0.369379 1.928189 1.000000
v 0.340956 1.857292 -0.923618
v -0.346416 0.142707 -0.923618
v -0.346416 0.142707 0.923618
v 0.340956 1.857292 0.923618
v -0.448178 0.142707 0.923618
v 0.239194 1.857292 0.923618
v -0.448178 0.142707 -0.923618
v 0.239194 1.857292 -0.923618
vn -0.0000 -0.0000 -1.0000
vn -0.0000 -0.0000 1.0000
vn 0.1141 -0.9935 -0.0000
vn 0.0524 0.9986 -0.0000
vn 0.9282 -0.3721 -0.0000
vn -0.0000 -1.0000 -0.0000
vn -0.0000 1.0000 -0.0000
vt 0.321120 0.314657
vt 0.321120 0.389445
vt 0.321120 0.314657
vt 0.321120 0.314657
vt 0.321120 0.389445
vt 0.321120 0.389445
vt 0.372327 0.386759
vt 0.372327 0.389445
vt 0.388956 0.386759
vt 0.344497 0.317342
vt 0.344497 0.389445
vt 0.388956 0.317342
vt 0.344497 0.317342
vt 0.344497 0.314657
vt 0.314169 0.317342
vt 0.372327 0.386759
vt 0.372327 0.314657
vt 0.314169 0.386759
vt 0.386100 0.384108
vt 0.371264 0.384108
vt 0.371264 0.386588
vt 0.386100 0.319993
vt 0.345560 0.319993
vt 0.345560 0.386588
vt 0.345560 0.319993
vt 0.317025 0.319993
vt 0.345560 0.317513
vt 0.371264 0.384108
vt 0.317025 0.384108
vt 0.371264 0.317513
vt 0.341755 0.319993
vt 0.341755 0.317513
vt 0.367459 0.384108
vt 0.367459 0.317513
vt 0.341755 0.319993
vt 0.341755 0.386588
vt 0.367459 0.384108
vt 0.367459 0.386588
s 0
f 3/4/1 4/6/1 5/7/1 6/10/1
f 13/31/1 14/33/1 12/28/1 11/25/1
f 7/13/2 8/16/2 2/2/2 1/1/2
f 3/5/3 6/11/3 7/14/3 1/1/3
f 5/8/4 4/6/4 2/3/4 8/17/4
f 9/19/5 10/22/5 6/12/5 5/9/5
f 10/22/5 11/26/5 7/15/5 6/12/5
f 12/29/5 9/19/5 5/9/5 8/18/5
f 11/26/5 12/29/5 8/18/5 7/15/5
f 16/37/2 15/35/2 10/23/2 9/20/2
f 14/34/6 16/38/6 9/21/6 12/30/6
f 15/36/7 13/32/7 11/27/7 10/24/7
o Cube.002
v -0.212609 0.298010 0.756300
v -0.448178 0.142707 0.923618
v 0.239194 1.857292 0.923618
v 0.350243 1.701990 0.756300
v -0.212609 0.298010 -0.756300
v -0.448178 0.142707 -0.923618
v 0.239194 1.857292 -0.923618
v 0.350243 1.701990 -0.756300
vn 0.9282 -0.3721 -0.0000
vn 0.6691 -0.2682 -0.6931
vn 0.5504 -0.8349 -0.0000
vn 0.8134 0.5816 -0.0000
vn 0.6691 -0.2682 0.6931
vt 0.405462 0.719537
vt 0.384548 0.740452
vt 0.615452 0.740452
vt 0.594538 0.719538
vt 0.405462 0.530462
vt 0.384548 0.509548
vt 0.615452 0.509548
vt 0.594537 0.530462
s 0
f 21/43/8 24/46/8 20/42/8 17/39/8
f 24/46/9 21/43/9 22/44/9 23/45/9
f 18/40/10 22/44/10 21/43/10 17/39/10
f 23/45/11 19/41/11 20/42/11 24/46/11
f 19/41/12 18/40/12 17/39/12 20/42/12
